<?xml version="1.0" encoding="UTF-8"?>
<svg id="Layer_1" data-name="Layer 1" xmlns="http://www.w3.org/2000/svg" viewBox="0 0 1410.51 1351.95">
  <defs>
    <style>
      .cls-1 {
        fill: #000;
        stroke-width: 0px;
      }
    </style>
  </defs>
  <polygon class="cls-1" points="123.66 673.59 104.51 604.55 68.4 604.55 49.3 673.68 36.25 604.55 0 604.55 27.48 728.05 64.9 728.05 86.47 650.29 108.14 728.05 145.56 728.05 172.78 604.55 136.72 604.55 123.66 673.59"/>
  <path class="cls-1" d="M770.48,1277.69c-7.22-3.68-19.17-7.31-35.85-10.91-6.74-1.4-11.01-2.92-12.81-4.55-1.85-1.57-2.78-3.34-2.78-5.31,0-2.7,1.12-4.98,3.37-6.87,2.25-1.88,5.59-2.82,10.02-2.82,5.39,0,9.62,1.26,12.68,3.79,3.06,2.53,5.07,6.57,6.02,12.13l35.97-2.11c-1.57-12.8-6.5-22.14-14.78-28.01-8.28-5.87-20.32-8.8-36.1-8.8-12.86,0-22.98,1.62-30.37,4.84-7.39,3.23-12.92,7.67-16.6,13.31-3.68,5.64-5.52,11.64-5.52,17.99,0,9.66,3.59,17.61,10.78,23.84,7.13,6.23,19.07,11.23,35.8,15,10.22,2.25,16.73,4.63,19.54,7.16,2.81,2.53,4.21,5.39,4.21,8.59,0,3.37-1.47,6.33-4.42,8.89-2.95,2.56-7.15,3.83-12.59,3.83-7.3,0-12.92-2.5-16.85-7.5-2.42-3.09-4.02-7.58-4.8-13.48l-36.31,2.27c1.07,12.47,5.64,22.75,13.73,30.83,8.09,8.09,22.63,12.13,43.64,12.13,11.96,0,21.87-1.73,29.74-5.18,7.86-3.45,13.98-8.52,18.36-15.21,4.38-6.68,6.57-13.98,6.57-21.9,0-6.74-1.64-12.83-4.93-18.28-3.29-5.45-8.54-10.01-15.75-13.69Z"/>
  <polygon class="cls-1" points="1344.63 700.08 1344.63 675.73 1404.02 675.73 1404.02 650.54 1344.63 650.54 1344.63 630.92 1408.65 630.92 1408.65 604.55 1306.38 604.55 1306.38 728.05 1410.51 728.05 1410.51 700.08 1344.63 700.08"/>
  <polygon class="cls-1" points="713.92 51.03 756.29 113.16 789.26 113.16 789.26 0 756.29 0 756.29 62.61 713.69 0 681.03 0 681.03 113.16 713.92 113.16 713.92 51.03"/>
  <path class="cls-1" d="M1096.92,638.75c-2.94-39.25-12.15-77.37-27.5-113.67-18.27-43.2-44.43-82-77.74-115.31-33.31-33.32-72.1-59.47-115.31-77.75-30.71-12.99-62.72-21.58-95.61-25.7l5.58,33.67c147.19,23,262.5,143.58,277.44,293.27l-217.77-36.05,105.27-147.05-131.16,93.91-1.77,1.27-14.12,10.11-69.09-417.37-27.55,166.44c-39.25,2.93-77.37,12.14-113.66,27.49-43.21,18.27-82.01,44.43-115.31,77.75-33.32,33.31-59.48,72.1-77.74,115.31-12.89,30.47-21.44,62.22-25.6,94.84l33.7-5.57c23.29-146.83,143.71-261.77,293.14-276.67l-36.05,217.78-147.06-105.29,105.28,147.05-417.35,69.09,166.44,27.55c2.94,39.25,12.15,77.37,27.5,113.67,18.26,43.2,44.41,82,77.74,115.31,33.31,33.32,72.1,59.48,115.31,77.75,30.37,12.85,62.01,21.39,94.53,25.56l-5.58-33.71c-146.69-23.41-261.46-143.77-276.36-293.09l217.76,36.05-105.28,147.05,147.06-105.27,69.07,417.35,27.56-166.44c39.24-2.93,77.37-12.14,113.67-27.49,43.2-18.27,82-44.43,115.31-77.75,33.31-33.31,59.47-72.1,77.74-115.31,13.06-30.88,21.67-63.06,25.76-96.15l-33.65,5.57c-22.78,147.46-143.48,263.04-293.34,277.98l36.04-217.77,147.04,105.27-105.27-147.05,417.36-69.09-166.44-27.55ZM672.06,559.74l36.85-222.67,5.46-32.98,20.77-125.49v487.65l-.03.02-69.23-69.23,6.18-37.3ZM665.88,735.57l-37.3-6.18-222.65-36.86-32.99-5.46-125.48-20.78h487.61l-.89.63.38-.06-68.69,68.7ZM798.24,772.87l-36.86,222.65-5.46,32.98-20.78,125.49v-487.22l.41-.07,68.86,68.86-6.17,37.3ZM736.06,666.3l-.1-.63-.64.46,69.1-69.08,37.28,6.16,222.67,36.86,32.99,5.46,125.48,20.78h-486.78Z"/>
</svg>