<?xml version="1.0" encoding="UTF-8"?>
<svg id="Layer_1" data-name="Layer 1" xmlns="http://www.w3.org/2000/svg" viewBox="0 0 680.47 950.09">
  <path d="M341.85,18.2h0s-1.61,0-1.61,0h-1.61s0,0,0,0l-320.4.64,1.93,552.66c0,152.83,273.77,328.55,317.19,355.47l2.89,1.78,2.89-1.78c43.42-26.91,317.19-202.64,317.19-355.47l1.93-552.66-320.4-.64Z" fill="none" stroke="#fff" stroke-miterlimit="10" stroke-width="36.32"/>
  <path d="M342.85,72.15h0s-1.35,0-1.35,0h-1.35s0,0,0,0l-269.25.55,1.62,480.24c0,132.8,230.06,285.5,266.55,308.88l2.43,1.55,2.43-1.55c36.49-23.39,266.55-176.08,266.55-308.88l1.62-480.24-269.25-.55Z" fill="#fff" stroke-width="0"/>
</svg>