<?xml version="1.0" encoding="UTF-8"?>
<svg id="Layer_1" data-name="Layer 1" xmlns="http://www.w3.org/2000/svg" viewBox="0 0 295.55 241.66">
  <defs>
    <style>
      .cls-1 {
        fill: #fff;
        stroke-width: 0px;
      }
    </style>
  </defs>
  <path class="cls-1" d="M32.46,120.39c0-.07,0-.14.01-.22,0-.14.02-.29.03-.44.05-.59.13-1.2.24-1.82.11-.63.25-1.27.41-1.91.16-.65.34-1.3.52-1.95.19-.65.38-1.31.58-1.96,1.55-5.19,2.73-9.69,2.34-9.83-.38-.15-2.49,4-4.78,8.91-.29.62-.58,1.25-.86,1.9-.28.65-.56,1.32-.81,2-.25.68-.49,1.38-.69,2.08-.2.7-.37,1.41-.5,2.12-.03.18-.06.36-.08.53-.01.09-.03.18-.04.26,0,.09-.02.18-.03.26-.02.18-.04.35-.06.52-.01.18-.02.35-.03.52,0,.09,0,.17-.01.26,0,.09,0,.17,0,.26,0,.17,0,.34,0,.5,0,.34.03.68.06,1,.13,1.3.45,2.41.8,3.28.7,1.73,1.71,2.93,2.65,3.66.47.37.93.63,1.35.8.1.04.2.08.3.11.1.03.19.06.28.09.19.04.35.08.51.1.63.07,1.03-.06,1.27-.23.24-.17.33-.38.38-.58s.04-.43-.04-.69c-.09-.25-.26-.53-.52-.87-.07-.08-.13-.18-.21-.26-.04-.05-.08-.1-.12-.15-.04-.05-.08-.1-.13-.15-.17-.21-.37-.45-.59-.75-.22-.3-.46-.64-.7-1.06-.25-.42-.51-.92-.75-1.51-.24-.59-.5-1.37-.65-2.27-.04-.23-.07-.46-.09-.7,0-.13-.02-.25-.02-.38,0-.06,0-.13-.01-.2,0-.07,0-.13,0-.2,0-.13,0-.27,0-.41,0-.14,0-.28,0-.42,0-.07,0-.14,0-.21Z"/>
  <path class="cls-1" d="M30.08,105.31c-.93,1.07-1.98,2.21-3.11,3.43-1.14,1.22-2.37,2.5-3.65,3.85-.57.6-1.16,1.22-1.75,1.85-.02.02-.03.03-.05.05-.72.78-1.46,1.58-2.19,2.41-.17.19-.34.38-.51.57-.17.2-.34.39-.51.59-.17.2-.34.39-.51.59-.17.2-.34.4-.51.61-.68.82-1.34,1.66-1.99,2.54-1.3,1.75-2.53,3.61-3.63,5.6-1.1,1.98-2.06,4.09-2.79,6.29-.73,2.2-1.23,4.52-1.39,6.85-.08,1.17-.08,2.34,0,3.5v.22s.04.22.04.22c.02.14.03.29.05.43.03.28.07.58.11.87.09.59.21,1.16.35,1.73.29,1.13.68,2.23,1.17,3.28.25.52.52,1.03.82,1.53.3.49.63.97.98,1.43.71.92,1.54,1.74,2.47,2.44.93.69,1.96,1.25,3.03,1.62.13.05.26.09.4.13.14.04.27.08.41.12.14.04.27.07.41.1.14.03.27.06.41.09.27.04.55.09.82.11.14.01.27.03.4.04.13,0,.27.01.4.02h.2s.2,0,.2,0c.13,0,.26,0,.39,0,.13,0,.26-.02.39-.03.13,0,.26-.02.38-.04.06,0,.13-.02.19-.02.02,0,.03,0,.05,0,.05,0,.09-.01.13-.02.12-.02.24-.04.37-.06.12-.02.24-.04.36-.07.12-.03.24-.05.35-.08.93-.22,1.79-.55,2.56-.92.77-.37,1.46-.8,2.07-1.24.61-.44,1.17-.92,1.68-1.42.5-.5.96-1.03,1.36-1.57.81-1.08,1.41-2.23,1.83-3.38.1-.28.18-.56.26-.83.04-.14.09-.27.12-.4.03-.14.06-.27.09-.4.03-.13.06-.27.09-.4.03-.13.06-.26.08-.39.04-.26.08-.52.11-.77,0-.06.02-.13.03-.19,0-.06.01-.12.02-.19,0-.12.02-.25.03-.37,0-.12.02-.24.02-.36,0-.06,0-.12.01-.18,0-.06,0-.12,0-.18v-.69c0-.11,0-.22,0-.33,0-.11-.01-.22-.02-.33-.11-1.73-.46-3.15-.85-4.31-.05-.14-.1-.29-.15-.42-.02-.07-.05-.14-.07-.2-.03-.07-.05-.13-.08-.2-.11-.26-.21-.5-.32-.74-.11-.23-.22-.45-.33-.65-.05-.1-.11-.2-.16-.3-.05-.1-.11-.19-.16-.28-.86-1.44-1.6-2.13-2.13-2.47-.54-.33-.87-.3-1.1-.16-.23.14-.42.43-.42,1.02-.01.59.15,1.49.43,2.89.02.09.04.18.05.27.02.09.03.19.05.28.04.19.07.39.11.6.03.21.07.43.1.65,0,.06.02.11.03.17,0,.06.01.12.02.17.02.12.03.24.05.36.12.98.21,2.11.15,3.37,0,.08,0,.16,0,.24,0,.08-.02.16-.02.24-.02.16-.03.33-.05.49,0,.04,0,.08-.01.13,0,.04-.01.08-.02.12-.01.08-.03.17-.04.25-.01.09-.03.17-.04.26,0,.04-.01.09-.02.13-.01.04-.02.09-.03.13-.04.17-.08.34-.12.52-.02.09-.04.18-.07.26-.03.09-.05.18-.08.26-.03.09-.05.18-.08.27-.02.09-.06.18-.1.27-.07.18-.13.36-.2.54-.28.67-.67,1.37-1.2,2.04-.26.33-.55.67-.88.98-.33.32-.68.62-1.07.9-.39.28-.81.54-1.28.78-.45.22-.94.42-1.45.55-.02,0-.03,0-.05.01,0,0,0,0,0,0-.07.02-.13.03-.2.05-.07.02-.13.03-.2.04-.07.01-.14.03-.2.04-.07,0-.14.02-.21.03-.07.01-.14.02-.21.02-.07,0-.14.01-.21.02-.07,0-.14,0-.21,0h-.1s-.1,0-.1,0c-.07,0-.14,0-.21,0-.07,0-.14,0-.21-.01-.14,0-.28-.03-.42-.05-.07-.01-.14-.03-.21-.04-.07-.01-.14-.02-.21-.04-.07-.02-.14-.03-.21-.05-.07-.02-.14-.04-.21-.07-.58-.18-1.14-.46-1.7-.84-.55-.39-1.08-.87-1.56-1.45-.24-.29-.48-.6-.7-.93-.22-.33-.42-.68-.61-1.05-.38-.73-.7-1.54-.95-2.38-.13-.42-.23-.85-.32-1.29-.04-.22-.08-.43-.11-.67l-.05-.35-.03-.17-.02-.17c-.11-.93-.16-1.88-.13-2.84.05-1.93.36-3.9.9-5.85.54-1.95,1.29-3.88,2.19-5.74.9-1.86,1.94-3.67,3.06-5.38.56-.86,1.14-1.7,1.73-2.52.15-.2.3-.41.45-.61.15-.2.3-.4.45-.6.15-.2.3-.4.45-.6.1-.13.19-.26.29-.38.02-.02.03-.04.05-.06.04-.05.08-.1.12-.15,1.22-1.57,2.44-3.08,3.61-4.53,1.18-1.45,2.3-2.84,3.34-4.16,1.03-1.33,1.99-2.59,2.82-3.78.84-1.18,1.55-2.29,2.16-3.27.6-.99,1.09-1.87,1.45-2.6.38-.73.62-1.32.77-1.73.15-.41.2-.64.14-.67-.27-.15-2.13,2.95-5.89,7.2Z"/>
  <path class="cls-1" d="M10.41,82.91s.06-.1.09-.15c.03-.05.06-.1.09-.14.03-.04.06-.08.09-.12.03-.04.06-.08.09-.12.13-.15.28-.29.43-.42.08-.07.16-.12.24-.18.08-.05.17-.11.25-.16.34-.2.7-.34,1.03-.45.34-.1.66-.17.96-.21.3-.04.57-.05.82-.05.13,0,.24,0,.36.01.11.01.22.02.32.03.41.05.73.11,1.01.15.27.04.49.06.67.04.18-.02.32-.08.42-.16.11-.08.19-.2.23-.39.01-.09.02-.21,0-.34-.02-.13-.06-.29-.14-.45-.16-.34-.45-.77-.98-1.2-.13-.11-.28-.21-.44-.32-.16-.1-.34-.21-.54-.3-.39-.19-.85-.36-1.38-.47-1.05-.23-2.39-.27-3.93.23-.19.06-.38.14-.58.22-.19.09-.39.18-.59.29-.4.21-.8.47-1.19.8-.1.08-.19.17-.29.25-.1.09-.19.18-.28.28-.1.09-.18.19-.26.29-.09.1-.17.2-.25.3-.33.41-.63.87-.88,1.37-.51,1-.85,2.15-.95,3.38-.11,1.23.01,2.55.42,3.88.2.67.48,1.34.85,2,.09.17.19.33.29.49.11.16.21.33.33.48.11.15.23.3.34.46.12.15.25.29.37.44.52.57,1.09,1.12,1.74,1.6.64.48,1.34.91,2.08,1.27,1.49.72,3.25,1.25,5.21,1.42,1.6.14,3.32.04,5.07-.39.02,0,.03,0,.05-.01.38-.09.76-.2,1.15-.33,1.08-.36,2.16-.86,3.19-1.53.26-.17.51-.34.76-.53.12-.1.25-.19.37-.29.12-.1.24-.21.36-.31.24-.2.47-.43.7-.66.12-.11.22-.24.33-.35.11-.12.22-.24.32-.37.83-.99,1.52-2.14,2.02-3.35.26-.61.45-1.23.62-1.87.17-.63.28-1.28.36-1.92.05-.32.07-.65.09-.97.02-.32.03-.65.03-.97,0-.65-.02-1.3-.09-1.94-.13-1.29-.39-2.57-.77-3.81-.19-.62-.42-1.24-.67-1.84l-.19-.45-.21-.45c-.07-.15-.15-.3-.22-.44l-.11-.22c-.04-.07-.08-.14-.12-.21-.16-.28-.31-.56-.47-.84-.17-.27-.34-.54-.51-.81-.04-.07-.08-.14-.13-.2l-.13-.2-.27-.39c-.09-.13-.18-.26-.27-.39l-.28-.38c-.75-1.02-1.56-1.98-2.4-2.89-.84-.91-1.7-1.78-2.57-2.61-.3-.28-.6-.57-.89-.84-.02-.02-.03-.03-.05-.05-1.43-1.33-2.86-2.6-4.22-3.86-.42-.38-.82-.77-1.22-1.15-.39-.39-.79-.77-1.17-1.16-.76-.78-1.49-1.56-2.16-2.36-.08-.1-.17-.2-.25-.3-.08-.1-.16-.2-.24-.3-.16-.2-.33-.4-.48-.61-.15-.2-.3-.41-.45-.61-.08-.1-.15-.2-.22-.31-.07-.1-.14-.21-.21-.31-.07-.1-.14-.21-.21-.31-.07-.1-.13-.21-.2-.31-.13-.21-.26-.42-.39-.62-.23-.42-.48-.84-.69-1.27-.05-.11-.11-.21-.16-.32l-.08-.16-.07-.16c-.09-.21-.19-.43-.28-.64-.05-.11-.08-.21-.12-.32-.04-.11-.08-.21-.12-.32-.08-.21-.16-.43-.22-.64-.07-.21-.13-.43-.19-.64-.04-.11-.05-.21-.08-.31-.02-.1-.05-.21-.07-.31-.04-.21-.09-.42-.12-.63-.02-.1-.03-.21-.05-.31-.01-.1-.03-.21-.04-.31-.1-.83-.1-1.65-.05-2.43.05-.79.18-1.54.35-2.25.34-1.42.89-2.64,1.52-3.63.31-.49.65-.93.98-1.31.34-.37.67-.7.99-.97.08-.07.16-.13.24-.19.08-.06.15-.12.23-.18.15-.11.3-.21.43-.31.14-.09.27-.17.38-.25.12-.07.23-.14.33-.2.05-.03.09-.06.14-.09.04-.03.08-.05.12-.07.08-.04.14-.09.19-.12.1-.07.15-.12.14-.16,0-.03-.08-.05-.2-.04-.06,0-.14.01-.23.02-.05,0-.09.01-.15.02-.05.01-.11.03-.17.04-.12.03-.25.06-.39.11-.14.05-.29.1-.46.16-.16.07-.33.15-.52.23-.09.05-.18.1-.28.15-.09.05-.2.1-.29.17-.4.24-.82.54-1.25.9-.43.37-.86.81-1.28,1.32-.84,1.02-1.6,2.33-2.14,3.9-.27.78-.49,1.62-.63,2.52-.14.89-.22,1.84-.18,2.82,0,.12,0,.25.01.37,0,.12.02.25.03.37.02.25.05.5.08.75.01.13.04.25.06.38.02.13.04.26.07.38.05.25.11.5.17.75.05.25.12.5.2.75.04.13.07.25.11.38.04.13.07.25.12.38.09.25.17.5.26.75l.07.19.08.19c.05.12.1.25.15.37.2.5.44.99.67,1.49.12.24.26.48.39.73.07.12.13.25.2.37.07.12.14.24.21.36s.14.24.21.36c.07.12.14.24.22.36.15.24.3.47.46.71.15.24.32.46.48.7.08.12.16.23.24.35.09.11.17.23.26.34.68.92,1.41,1.81,2.17,2.68.38.44.77.87,1.16,1.3.4.42.79.85,1.2,1.27,1.62,1.68,3.28,3.31,4.86,4.98.61.66,1.22,1.32,1.79,1.99.02.02.03.04.05.06.88,1.03,1.7,2.08,2.43,3.17l.23.34c.07.11.14.23.22.35l.21.35.11.17c.03.06.07.12.1.18.13.23.26.47.39.7.12.24.24.48.36.71.03.06.06.12.09.18l.08.18c.05.12.11.23.15.35l.15.35.14.36c.18.48.33.97.46,1.46.51,1.96.64,3.98.34,5.79-.07.45-.17.89-.3,1.31-.13.42-.27.83-.45,1.21-.35.77-.79,1.45-1.31,2.03-.93,1.03-2.12,1.77-3.38,2.23-.02,0-.03.01-.05.02-.13.05-.27.09-.4.13-1.43.44-2.89.54-4.18.41-1.3-.13-2.45-.5-3.37-.94-.91-.46-1.67-1.01-2.23-1.63-.07-.08-.14-.15-.21-.23-.06-.08-.12-.16-.19-.24-.07-.08-.11-.15-.17-.23-.05-.08-.1-.15-.15-.23-.19-.32-.35-.65-.47-.99-.24-.68-.35-1.38-.34-2,0-.63.12-1.19.29-1.66.09-.24.19-.45.31-.65Z"/>
  <path class="cls-1" d="M27.06,32.88c-1.5-.63-3.02-.99-4.41-1.15-.37-.04-.74-.07-1.09-.08-.02,0-.03,0-.05,0-.29-.01-.57-.01-.85,0-.62.02-1.2.07-1.72.15-1.05.17-1.86.43-2.4.67-.14.06-.25.12-.36.18-.1.06-.18.11-.25.17-.13.1-.19.19-.17.25.02.07.11.12.27.16.08.02.17.04.28.05.11.01.24.03.38.04.56.05,1.34.1,2.27.24.46.07.97.17,1.49.29.34.08.7.18,1.06.29.02,0,.03,0,.05.02.17.05.35.11.53.17,1.12.39,2.29.94,3.38,1.65,1.09.71,2.11,1.58,2.95,2.56.84.97,1.5,2.04,1.98,3.12.48,1.08.78,2.17.97,3.15.09.49.15.96.19,1.39.02.22.04.42.05.62.02.2.02.38.03.56.04,1.41-.04,2.51-.07,3.39-.04.88-.04,1.55.02,2.08.07.53.21.91.4,1.2.19.29.44.47.68.6.24.13.53.22.89.18.36-.04.78-.22,1.24-.67.47-.45.98-1.17,1.42-2.3.21-.56.41-1.23.54-2,.13-.77.21-1.66.17-2.65-.01-.25-.02-.51-.05-.79-.02-.28-.06-.56-.1-.86-.09-.6-.21-1.24-.39-1.92-.36-1.34-.93-2.8-1.77-4.22-.42-.71-.91-1.4-1.46-2.06-.55-.66-1.16-1.28-1.81-1.83-1.31-1.12-2.79-2.01-4.29-2.63Z"/>
  <path class="cls-1" d="M14.96,51.18c-.45-.48-.87-.98-1.26-1.48-.39-.51-.73-1.02-1.04-1.55-.07-.13-.16-.26-.22-.39-.07-.13-.14-.26-.21-.4-.13-.27-.26-.53-.37-.79-.03-.07-.06-.13-.08-.2-.03-.07-.05-.13-.08-.2-.05-.13-.1-.26-.15-.4-.04-.13-.09-.26-.13-.4-.04-.13-.08-.26-.11-.4-.14-.53-.24-1.05-.31-1.55-.07-.51-.11-1-.13-1.47-.03-.94.04-1.8.18-2.54.14-.74.35-1.36.56-1.85.22-.49.44-.85.59-1.09.08-.12.14-.21.18-.28.04-.07.05-.11.04-.12-.01-.01-.05,0-.11.05-.06.04-.16.11-.26.22-.22.21-.51.54-.81,1.03-.3.49-.59,1.12-.81,1.9-.22.77-.38,1.68-.43,2.69-.02.5-.02,1.03.02,1.58.04.55.11,1.12.22,1.7.03.15.06.29.1.44.04.15.07.29.11.44.04.15.09.3.13.45.02.07.05.15.07.22.03.07.05.15.08.22.1.3.23.59.35.9.07.15.14.3.2.44.07.15.15.29.22.44,1.21,2.37,3.17,4.56,5.38,6.48,1.11.97,2.27,1.89,3.43,2.8.4.32.8.63,1.2.95.02.01.03.03.05.04.16.13.32.26.48.38.28.23.57.46.85.7.28.23.57.47.85.71,1.13.94,2.23,1.9,3.27,2.87,1.04.97,2.02,1.96,2.91,2.98.89,1.01,1.68,2.04,2.36,3.07.67,1.04,1.23,2.08,1.68,3.08.11.26.21.51.31.75.02.06.05.12.08.19.02.06.04.12.06.18.04.12.09.24.13.36.07.24.15.48.21.72.03.12.07.24.1.35.03.12.05.23.08.35.21.92.32,1.79.39,2.57.06.78.07,1.52.05,2.23-.02.7-.08,1.37-.15,1.99-.14,1.25-.37,2.33-.6,3.27-.47,1.88-.98,3.18-1.32,4.13-.35.94-.57,1.52-.64,1.9-.08.37-.01.55.1.63.11.08.29.08.62-.14.33-.22.82-.68,1.44-1.57.62-.9,1.4-2.24,2.08-4.27.34-1.02.65-2.21.86-3.6.21-1.39.32-2.98.18-4.76-.07-.89-.2-1.89-.46-2.97-.03-.13-.07-.27-.1-.41-.04-.14-.08-.27-.12-.41-.08-.28-.17-.56-.27-.84-.05-.14-.1-.28-.16-.43-.03-.07-.05-.14-.08-.21-.03-.07-.06-.14-.09-.21-.12-.28-.24-.56-.37-.85-.53-1.13-1.19-2.29-1.96-3.42-.78-1.13-1.68-2.22-2.66-3.28-.39-.42-.79-.83-1.21-1.24h0c1.06.3,2.08.5,3.01.64.94.13,1.78.18,2.46.19,1.36.01,2.41-.13,3.21-.32.1-.02.2-.04.29-.07.09-.03.18-.05.27-.08.17-.05.33-.1.47-.16.29-.11.52-.22.71-.33.38-.22.58-.43.68-.6.1-.18.1-.33.06-.47-.07-.27-.31-.54-1.1-.63-.2-.03-.43-.04-.71-.04-.14,0-.29,0-.45,0-.08,0-.17,0-.25,0-.09,0-.18,0-.27,0-.74.02-1.67.05-2.88.04-.6,0-1.35-.03-2.19-.1-.85-.08-1.79-.2-2.78-.41-.99-.2-2.02-.48-3.04-.83-.7-.24-1.39-.52-2.06-.82,0,0,0,0,0,0h0c-.28-.22-.56-.44-.84-.66-.29-.23-.59-.46-.89-.68-.29-.23-.59-.45-.89-.68-.57-.43-1.15-.84-1.71-1.25-.02-.01-.03-.02-.05-.04-.01,0-.03-.02-.04-.03-1.2-.87-2.37-1.71-3.48-2.59-.55-.44-1.08-.89-1.59-1.35-.51-.46-.99-.93-1.44-1.41Z"/>
  <path class="cls-1" d="M4.19,96.68c-.31.17-.66.52-.93,1.23-.03.09-.07.18-.1.28-.03.1-.06.2-.09.31-.02.11-.05.23-.07.35-.02.12-.04.25-.05.38-.01.13-.02.27-.02.42,0,.07,0,.15,0,.22,0,.08,0,.15,0,.23,0,.16.02.32.03.49.02.17.05.34.08.52.13.72.36,1.53.78,2.38.42.85,1.02,1.76,1.87,2.62.22.21.45.44.71.65.07.05.13.11.2.16.07.06.14.11.21.16.14.1.29.21.44.31.61.41,1.3.79,2.06,1.11.71.29,1.49.53,2.3.7-.17.12-.33.25-.49.38-.85.67-1.61,1.4-2.25,2.11-.63.71-1.14,1.41-1.5,2.01-.09.15-.17.3-.25.44-.08.15-.15.29-.22.43-.13.29-.25.56-.33.82-.18.53-.29,1.01-.33,1.45-.02.22-.03.42-.03.61,0,.19.02.37.05.54.05.33.15.62.26.86.06.12.12.23.19.33.07.1.15.19.23.27.16.16.34.29.52.4.36.21.75.31,1.1.38.36.07.76.11,1.17.08.21-.02.42-.05.62-.1.1-.03.21-.06.31-.1.1-.04.21-.08.31-.13.21-.1.4-.23.61-.38.1-.08.2-.16.29-.25.1-.09.2-.19.29-.3.2-.21.39-.46.59-.74.1-.14.21-.29.31-.46.05-.08.11-.17.16-.25.05-.09.11-.18.17-.27.06-.09.12-.19.18-.3.07-.11.13-.22.2-.34.07-.12.15-.24.23-.37.04-.06.08-.13.12-.2.04-.07.09-.13.13-.2.35-.54.78-1.16,1.29-1.8.5-.64,1.08-1.31,1.71-1.98.63-.67,1.31-1.33,1.99-1.97s1.36-1.25,2-1.81c.64-.56,1.23-1.09,1.72-1.54.03-.03.07-.06.1-.1.61-.4,1.18-.84,1.72-1.29.68-.57,1.31-1.17,1.88-1.77.57-.61,1.08-1.22,1.55-1.82s.88-1.19,1.24-1.75c.37-.56.69-1.1.97-1.6.56-1,.96-1.83,1.2-2.43.24-.6.32-.97.22-1.03-.1-.07-.4.16-.85.61-.45.45-1.07,1.13-1.82,1.94-.38.4-.79.84-1.24,1.29-.45.45-.93.92-1.45,1.39-1.04.94-2.21,1.89-3.51,2.69-1.3.8-2.71,1.46-4.15,1.87-.71.2-1.44.34-2.14.41-.7.07-1.39.07-2.05.02-1.32-.11-2.51-.47-3.46-.93-.47-.23-.88-.49-1.24-.75-.09-.07-.17-.13-.26-.2-.04-.03-.08-.06-.12-.1-.04-.03-.07-.07-.11-.1-.15-.12-.28-.26-.41-.38-.5-.5-.88-1.01-1.19-1.49-.31-.48-.53-.93-.72-1.33-.37-.81-.59-1.43-.8-1.91-.03-.06-.05-.12-.08-.18-.02-.06-.05-.11-.07-.16-.05-.1-.1-.2-.15-.29-.06-.09-.1-.17-.16-.24-.05-.07-.11-.14-.16-.2-.22-.24-.47-.36-.7-.42-.23-.06-.51-.07-.81.09Z"/>
  <path class="cls-1" d="M131.38,34.63c-.01-.16-.05-.33-.1-.51-.02-.09-.05-.19-.09-.28-.03-.1-.07-.2-.11-.3-.17-.41-.43-.87-.8-1.35-.74-.94-1.93-1.95-3.67-2.65-.86-.35-1.98-.67-3.28-.8-.32-.03-.66-.05-1.01-.06-.17,0-.33,0-.5,0-.09,0-.17,0-.26,0-.09,0-.17,0-.26.01-.17.01-.35.02-.52.03-.17.02-.35.04-.52.06-.09,0-.18.02-.27.03-.09.01-.18.03-.26.04-.18.03-.36.05-.53.08-.71.13-1.42.3-2.12.5-.7.21-1.4.44-2.08.69-.68.26-1.35.53-2,.81-.65.28-1.28.57-1.9.86-4.92,2.29-9.06,4.39-8.91,4.77s4.64-.79,9.84-2.34c.65-.19,1.3-.39,1.96-.58.65-.19,1.31-.36,1.96-.52.65-.16,1.29-.29,1.91-.41.63-.11,1.24-.19,1.83-.24.15-.01.29-.02.44-.03.07,0,.14,0,.22-.01.07,0,.14,0,.21,0,.14,0,.28,0,.42,0,.14,0,.27,0,.41,0,.07,0,.13,0,.2,0,.07,0,.13,0,.2.01.13,0,.26.02.38.02.24.02.47.05.7.09.9.15,1.68.4,2.27.65.6.24,1.09.5,1.52.75.42.25.77.49,1.06.7.29.22.54.41.75.59.05.04.11.08.15.13.05.04.1.08.15.12.09.08.18.15.26.21.33.26.61.43.87.52.25.09.49.09.69.04.2-.04.41-.14.58-.38.17-.24.3-.64.23-1.27Z"/>
  <path class="cls-1" d="M118.61,17.78c-.2.17-.4.34-.59.51-.2.17-.39.34-.59.51-.19.17-.38.34-.57.51-.83.74-1.63,1.47-2.41,2.19-.02.02-.03.03-.05.05-.63.59-1.25,1.17-1.86,1.75-1.36,1.29-2.64,2.52-3.86,3.65-1.22,1.13-2.36,2.19-3.43,3.11-4.25,3.76-7.35,5.62-7.2,5.89.03.06.26,0,.67-.14.41-.15,1-.39,1.73-.77.74-.36,1.61-.85,2.61-1.45.99-.6,2.1-1.32,3.28-2.16,1.19-.83,2.45-1.78,3.78-2.82,1.33-1.04,2.72-2.16,4.17-3.34,1.45-1.18,2.96-2.4,4.53-3.61.05-.04.1-.08.15-.12.02-.02.04-.03.06-.05.13-.1.25-.2.38-.29.2-.15.4-.3.6-.45.2-.15.4-.3.6-.45.2-.15.41-.3.61-.45.82-.59,1.66-1.17,2.52-1.73,1.72-1.12,3.52-2.16,5.39-3.06,1.87-.9,3.8-1.65,5.75-2.19,1.95-.54,3.93-.85,5.86-.9.96-.02,1.92.02,2.85.13l.17.02.17.03.35.05c.23.03.45.07.67.11.44.09.87.19,1.29.32.84.25,1.64.57,2.38.95.37.19.72.4,1.05.61.33.22.64.45.93.69.58.48,1.07,1.01,1.45,1.56.38.55.66,1.12.84,1.69.02.07.05.14.07.21.02.07.04.14.05.21.02.07.03.14.04.21.01.07.03.14.04.21.01.14.04.28.05.42v.21c.02.07.02.14.02.21v.1s0,.1,0,.1c0,.07,0,.14,0,.21,0,.07-.01.14-.02.21,0,.07-.01.14-.02.21,0,.07-.02.14-.03.21,0,.07-.03.14-.04.2-.01.07-.02.14-.04.2-.02.07-.03.13-.05.2h0s0,.04-.01.05c-.13.51-.33,1-.55,1.45-.23.47-.5.89-.78,1.28-.28.39-.58.74-.9,1.07-.32.32-.65.62-.98.88-.67.53-1.37.92-2.04,1.2-.18.07-.36.13-.54.2-.09.03-.17.07-.27.1-.09.03-.18.05-.27.08-.09.03-.18.05-.26.08-.09.03-.17.05-.26.07-.18.04-.35.08-.52.12-.04,0-.09.02-.13.03-.04,0-.09.01-.13.02-.09.01-.17.03-.26.04-.08.01-.17.03-.25.04-.04,0-.08.01-.12.02-.04,0-.08,0-.13.01-.17.02-.33.03-.49.05-.08,0-.16.02-.24.02-.08,0-.16,0-.24,0-1.27.06-2.4-.03-3.37-.15-.12-.02-.24-.03-.36-.05-.06,0-.12-.01-.17-.02-.06,0-.12-.02-.17-.03-.23-.04-.44-.07-.65-.1-.21-.04-.41-.08-.6-.11-.1-.02-.19-.03-.28-.05-.09-.02-.18-.04-.27-.05-1.4-.28-2.3-.44-2.89-.43-.59,0-.88.19-1.02.42-.14.23-.17.56.16,1.1.33.53,1.03,1.27,2.47,2.13.09.05.18.11.28.16.1.05.2.1.3.16.21.11.42.22.65.33.23.1.48.21.74.32.07.03.13.05.2.08.07.02.14.05.2.07.14.05.28.1.43.15,1.16.39,2.58.74,4.31.85.11,0,.22.01.33.02.11,0,.22,0,.33,0h.69c.06,0,.12,0,.18,0,.06,0,.12,0,.18-.01.12,0,.24-.02.36-.03.12,0,.24-.02.37-.03.06,0,.12,0,.19-.02.06,0,.13-.02.19-.03.25-.04.51-.07.77-.11.13-.02.26-.05.39-.08.13-.03.26-.06.4-.09.13-.03.27-.06.4-.09.14-.03.27-.08.41-.12.27-.08.55-.17.83-.26,1.15-.42,2.3-1.02,3.38-1.82.54-.4,1.07-.85,1.57-1.36.5-.51.98-1.06,1.42-1.67.44-.61.87-1.3,1.24-2.07.37-.77.7-1.62.92-2.55.03-.12.05-.23.08-.35.03-.12.05-.24.07-.36.02-.12.05-.24.06-.37,0-.05.01-.09.02-.13,0-.02,0-.03,0-.05,0-.06.02-.13.02-.19.02-.12.03-.25.04-.38,0-.13.02-.26.03-.39,0-.13,0-.26,0-.39v-.2s0-.2,0-.2c0-.13-.01-.27-.02-.4,0-.13-.02-.27-.04-.4-.02-.27-.07-.54-.11-.82-.03-.14-.06-.27-.09-.41-.03-.14-.06-.27-.1-.41-.04-.14-.08-.27-.12-.41-.04-.14-.09-.27-.13-.4-.37-1.07-.93-2.1-1.62-3.03-.7-.93-1.52-1.76-2.44-2.47-.46-.35-.93-.68-1.43-.98-.49-.3-1.01-.57-1.53-.82-1.05-.49-2.15-.88-3.28-1.17-.57-.14-1.14-.26-1.73-.35-.29-.05-.59-.09-.87-.11-.14-.01-.29-.03-.43-.05l-.22-.02h-.22c-1.16-.1-2.33-.1-3.5-.02-2.34.16-4.65.66-6.86,1.39-2.21.73-4.31,1.69-6.3,2.79-1.99,1.1-3.85,2.33-5.6,3.63-.87.65-1.72,1.31-2.54,1.99-.2.17-.41.34-.61.51Z"/>
  <path class="cls-1" d="M36.39,8.55c-.51.42-.95.85-1.32,1.28-.36.43-.66.85-.9,1.25-.06.1-.11.2-.17.29-.05.1-.1.19-.15.28-.09.19-.17.36-.23.52-.06.17-.12.32-.17.46-.04.14-.08.27-.11.39-.01.06-.03.11-.04.17,0,.05-.02.1-.02.15-.01.09-.02.17-.02.23,0,.13,0,.19.04.2.03.01.09-.04.16-.14.04-.05.08-.11.12-.19.02-.04.05-.08.07-.12.03-.04.06-.09.09-.14.06-.1.13-.21.2-.33.08-.12.16-.25.25-.38.1-.13.2-.28.31-.43.06-.07.12-.15.18-.23.06-.08.12-.16.19-.24.27-.32.6-.65.97-.99.38-.33.82-.66,1.31-.98.99-.63,2.21-1.18,3.63-1.52.71-.17,1.46-.29,2.25-.35.79-.06,1.61-.05,2.44.05.1.01.21.02.31.04.1.02.21.03.31.05.21.03.42.08.63.12.11.02.21.05.31.07.1.03.21.05.31.08.21.06.43.13.64.19.22.06.43.14.64.22.11.04.21.08.32.12.11.04.22.08.32.12.21.09.43.19.64.28l.16.07.16.08c.1.05.21.11.32.16.43.2.84.45,1.27.68.21.13.42.26.62.39.1.07.21.13.31.2.1.07.21.14.31.21.1.07.21.14.31.21.1.07.21.14.31.22.2.15.41.3.61.45.2.15.4.32.61.48.1.08.2.16.3.24.1.08.2.17.3.25.8.67,1.59,1.4,2.36,2.16.39.38.77.77,1.16,1.17.38.4.77.81,1.15,1.22,1.26,1.36,2.53,2.79,3.86,4.22.01.02.03.03.05.05.28.3.56.6.84.89.84.87,1.7,1.73,2.61,2.57.91.84,1.87,1.64,2.89,2.39l.38.28c.13.09.26.18.39.27l.39.27.2.13c.07.04.14.09.2.13.27.17.54.34.81.51.28.16.56.31.84.47.07.04.14.08.21.12l.22.11c.15.07.29.15.44.22l.45.21.45.19c.61.25,1.22.47,1.84.67,1.25.38,2.52.65,3.82.77.65.07,1.3.1,1.95.09.32,0,.65-.02.97-.03.33-.03.65-.05.97-.09.65-.08,1.29-.2,1.93-.36.63-.17,1.26-.37,1.87-.62,1.22-.5,2.36-1.19,3.35-2.02.13-.1.25-.21.37-.32.12-.11.24-.21.35-.33.22-.23.46-.45.66-.7.1-.12.21-.24.31-.36.1-.12.19-.25.29-.37.19-.25.36-.5.53-.76.67-1.03,1.17-2.11,1.53-3.18.13-.38.24-.76.33-1.15,0-.02,0-.03.01-.05.43-1.75.53-3.47.39-5.06-.17-1.96-.7-3.72-1.42-5.21-.37-.74-.79-1.44-1.27-2.08-.47-.64-1.02-1.22-1.6-1.74-.15-.13-.29-.25-.44-.37-.15-.12-.31-.23-.46-.34-.15-.11-.32-.22-.48-.33-.17-.1-.33-.2-.49-.29-.66-.37-1.33-.64-2-.85-1.34-.4-2.65-.52-3.88-.42-1.23.1-2.39.44-3.38.95-.5.25-.96.55-1.37.88-.1.08-.21.16-.3.25-.1.09-.19.17-.29.26-.09.09-.19.18-.28.28-.09.1-.17.19-.25.29-.32.39-.58.79-.8,1.18-.11.2-.2.4-.29.59-.08.2-.16.39-.22.58-.51,1.53-.46,2.87-.23,3.92.12.53.28.99.48,1.38.09.2.2.38.3.54.11.16.21.31.32.44.43.53.86.83,1.2.98.17.08.32.12.45.14.13.02.24.02.34,0,.19-.03.31-.12.39-.23.09-.11.14-.25.16-.42.02-.18,0-.39-.04-.67-.04-.27-.11-.6-.15-1.01-.01-.1-.02-.21-.03-.32,0-.11-.01-.23-.01-.36,0-.25,0-.52.05-.82.04-.3.1-.62.21-.96.11-.34.25-.69.45-1.03.05-.09.11-.17.16-.25.06-.08.12-.16.18-.24.13-.16.27-.3.42-.43.04-.03.08-.06.12-.09.04-.03.08-.06.12-.09.04-.03.09-.06.14-.09.05-.03.1-.06.15-.09.2-.12.42-.22.65-.31.47-.18,1.03-.29,1.66-.29.63,0,1.32.1,2,.34.34.12.68.28.99.47.08.05.16.1.24.15.07.06.15.1.23.17.08.06.16.13.24.19.08.07.15.14.23.21.62.57,1.18,1.32,1.63,2.23.44.92.81,2.07.94,3.36.13,1.29.03,2.75-.41,4.18-.04.13-.08.27-.13.4,0,.02-.01.03-.02.05-.45,1.26-1.2,2.45-2.23,3.38-.58.52-1.26.97-2.03,1.31-.38.18-.79.32-1.21.45-.42.13-.86.23-1.32.3-1.81.3-3.83.17-5.79-.34-.49-.13-.98-.28-1.46-.46l-.36-.14-.35-.15c-.12-.05-.23-.1-.35-.15l-.18-.08c-.06-.03-.12-.06-.18-.09-.24-.12-.48-.24-.71-.36-.23-.13-.47-.26-.7-.39-.06-.03-.12-.06-.18-.1l-.17-.11-.35-.21c-.12-.07-.23-.14-.35-.22l-.34-.23c-1.09-.72-2.14-1.55-3.17-2.42-.02-.02-.04-.03-.06-.05-.67-.58-1.34-1.18-1.99-1.79-1.68-1.58-3.31-3.24-4.99-4.85-.42-.41-.85-.8-1.27-1.2-.43-.39-.86-.78-1.3-1.16-.87-.76-1.76-1.49-2.68-2.16-.11-.09-.23-.17-.34-.26-.12-.08-.23-.16-.35-.24-.23-.16-.46-.33-.7-.48-.24-.15-.47-.31-.71-.46-.12-.08-.24-.15-.36-.22-.12-.07-.24-.14-.36-.21-.12-.07-.24-.14-.36-.21-.12-.07-.24-.13-.37-.2-.25-.13-.49-.26-.73-.39-.5-.23-.98-.48-1.49-.67-.12-.05-.25-.1-.37-.15l-.19-.08-.19-.07c-.25-.09-.5-.18-.75-.26-.12-.05-.25-.08-.38-.12-.13-.04-.25-.07-.38-.11-.25-.07-.5-.15-.75-.2-.25-.06-.5-.11-.75-.17-.12-.03-.25-.04-.38-.07-.13-.02-.25-.05-.38-.06-.25-.03-.5-.07-.75-.08-.12,0-.25-.02-.37-.03-.12,0-.25,0-.37-.01-.98-.03-1.93.04-2.82.18-.89.14-1.74.36-2.52.63-1.56.54-2.88,1.31-3.9,2.14Z"/>
  <path class="cls-1" d="M53.94,31.95c-.29-.19-.67-.33-1.2-.4-.53-.07-1.2-.06-2.08-.02-.88.04-1.98.12-3.4.07-.18,0-.36-.01-.56-.03-.2,0-.4-.03-.62-.05-.43-.04-.9-.1-1.39-.19-.98-.18-2.07-.49-3.15-.97-1.08-.48-2.15-1.13-3.12-1.98-.97-.84-1.85-1.85-2.56-2.94-.71-1.09-1.26-2.26-1.65-3.38-.06-.18-.12-.35-.17-.53,0-.02-.01-.03-.02-.05-.11-.36-.21-.72-.29-1.06-.12-.53-.21-1.03-.29-1.49-.14-.93-.19-1.71-.24-2.27-.01-.14-.03-.27-.04-.38-.01-.11-.03-.2-.05-.28-.04-.16-.09-.25-.16-.27-.07-.02-.15.04-.25.17-.05.07-.11.15-.17.25-.06.1-.11.22-.18.35-.24.54-.5,1.36-.67,2.4-.08.52-.13,1.1-.15,1.72,0,.27,0,.56,0,.85,0,.02,0,.03,0,.05.01.35.04.72.08,1.09.15,1.39.52,2.91,1.15,4.41.62,1.5,1.51,2.98,2.63,4.28.56.65,1.18,1.26,1.84,1.81.66.55,1.35,1.04,2.06,1.46,1.41.84,2.88,1.41,4.22,1.77.67.18,1.32.3,1.92.39.3.04.59.08.86.1.28.03.54.04.79.05.99.03,1.88-.04,2.65-.17.78-.13,1.44-.33,2.01-.54,1.13-.43,1.85-.95,2.3-1.42.45-.47.63-.89.67-1.24.04-.36-.05-.64-.18-.89-.12-.24-.31-.49-.6-.68Z"/>
  <path class="cls-1" d="M92.38,32.75c-.08-.11-.25-.18-.63-.1-.38.07-.96.28-1.9.64-.95.34-2.25.85-4.13,1.32-.94.23-2.02.45-3.27.59-.62.07-1.29.12-1.99.15-.7.02-1.45,0-2.23-.05-.78-.06-1.65-.17-2.57-.39-.12-.03-.23-.05-.35-.08-.12-.03-.23-.06-.35-.09-.24-.06-.47-.14-.72-.21-.12-.04-.24-.09-.36-.13-.06-.02-.12-.04-.18-.06-.06-.02-.12-.05-.19-.08-.25-.1-.5-.21-.75-.31-1.01-.45-2.05-1.01-3.09-1.68-1.03-.68-2.06-1.48-3.07-2.36-1.01-.89-2.01-1.87-2.98-2.9-.97-1.04-1.92-2.14-2.87-3.27-.24-.28-.47-.56-.71-.85-.24-.28-.47-.57-.7-.85-.13-.16-.26-.32-.38-.48-.01-.02-.02-.03-.04-.05-.32-.4-.64-.8-.95-1.2-.91-1.16-1.83-2.32-2.8-3.43-1.92-2.21-4.11-4.17-6.48-5.38-.15-.07-.29-.15-.44-.22-.15-.07-.3-.14-.44-.2-.3-.12-.6-.25-.9-.35-.07-.03-.15-.05-.22-.08-.07-.02-.15-.05-.22-.07-.15-.04-.3-.09-.45-.13-.15-.04-.3-.07-.44-.11s-.29-.07-.44-.1c-.58-.11-1.15-.19-1.7-.22-.55-.04-1.08-.04-1.58-.02-1.01.05-1.91.2-2.69.43-.77.22-1.41.52-1.9.81-.49.3-.82.59-1.03.81-.1.11-.17.2-.22.26-.04.06-.06.1-.05.11.01.01.05,0,.12-.04.07-.04.16-.1.28-.18.24-.15.6-.37,1.09-.59.49-.22,1.11-.42,1.85-.56.74-.14,1.6-.21,2.54-.18.47.01.96.05,1.47.13.51.07,1.03.17,1.56.31.13.04.26.07.4.11.13.04.26.08.4.13.13.04.26.1.4.15.07.03.13.05.2.08.07.03.13.06.2.08.27.11.53.24.79.37.13.07.26.14.4.21.13.07.26.15.39.22.52.31,1.04.66,1.55,1.04.51.39,1,.81,1.48,1.26.48.45.96.93,1.41,1.44.46.51.91,1.04,1.35,1.59.88,1.1,1.73,2.28,2.6,3.47,0,.01.02.03.03.04.01.02.02.03.04.05.41.57.83,1.14,1.26,1.71.23.3.45.6.68.89.23.3.45.59.68.89.22.28.44.56.66.84h0s0,0,0,0c.3.67.58,1.36.82,2.06.35,1.02.63,2.05.83,3.04.2.99.33,1.93.41,2.78.07.85.09,1.59.1,2.19.01,1.2-.03,2.14-.04,2.87,0,.09,0,.18,0,.27,0,.08,0,.17,0,.25,0,.16,0,.31,0,.45,0,.28.02.51.04.71.09.8.36,1.03.63,1.1.13.03.29.04.47-.06.18-.1.39-.3.6-.68.1-.19.22-.42.33-.71.05-.14.1-.3.16-.47.03-.09.05-.18.08-.27.02-.09.05-.19.07-.29.19-.8.34-1.86.32-3.21-.01-.68-.06-1.52-.19-2.46-.13-.93-.34-1.95-.64-3h0c.41.41.82.82,1.24,1.21,1.06.98,2.15,1.88,3.28,2.66,1.13.78,2.29,1.43,3.42,1.96.29.12.57.25.85.37.07.03.14.06.21.09.07.03.14.05.21.08.14.05.28.11.43.16.29.09.56.19.84.27.14.04.28.08.41.12.14.03.27.07.41.1,1.07.26,2.08.39,2.97.46,1.79.14,3.38.03,4.76-.18,1.39-.21,2.58-.52,3.6-.86,2.04-.68,3.38-1.47,4.27-2.08.9-.63,1.35-1.12,1.57-1.44.22-.33.22-.51.14-.62Z"/>
  <path class="cls-1" d="M96.94,5.71c.06.06.12.11.2.16.07.05.15.1.24.15.09.05.18.11.29.15.05.02.11.05.16.07.06.03.11.06.18.08.48.2,1.11.43,1.92.8.4.19.85.41,1.33.72.48.31,1,.69,1.49,1.19.12.13.26.25.38.41.03.04.06.07.1.11.03.04.07.07.1.12.06.08.13.17.2.26.26.36.52.77.75,1.24.46.94.82,2.13.93,3.46.06.66.05,1.35-.02,2.05-.07.7-.21,1.42-.41,2.13-.4,1.43-1.06,2.85-1.87,4.14-.8,1.3-1.75,2.47-2.69,3.51-.47.52-.94,1-1.39,1.45-.45.45-.89.86-1.29,1.24-.81.75-1.49,1.36-1.94,1.82-.45.45-.68.75-.62.85.06.1.43.02,1.03-.22.6-.24,1.44-.64,2.43-1.2.5-.28,1.03-.6,1.6-.97.56-.37,1.15-.78,1.75-1.24.6-.46,1.22-.98,1.82-1.54.61-.57,1.21-1.2,1.78-1.88.45-.54.88-1.11,1.29-1.72.03-.03.06-.07.1-.1.46-.5.98-1.08,1.54-1.72.56-.64,1.17-1.32,1.81-2,.64-.68,1.3-1.36,1.97-1.98.67-.63,1.34-1.21,1.98-1.71.64-.5,1.25-.93,1.8-1.28.07-.04.13-.09.2-.13.07-.04.13-.08.2-.12.13-.08.25-.16.37-.23.12-.07.23-.14.34-.2.11-.06.21-.12.3-.18.09-.06.19-.11.27-.17.09-.05.17-.11.25-.16.17-.1.32-.21.46-.31.29-.2.53-.39.75-.59.11-.09.21-.19.3-.29.09-.1.18-.19.25-.29.15-.2.28-.4.38-.61.05-.1.09-.21.13-.31.04-.1.07-.21.1-.31.05-.21.09-.42.1-.62.03-.41,0-.81-.08-1.17-.07-.36-.17-.74-.38-1.1-.1-.18-.23-.36-.4-.52-.08-.08-.17-.16-.27-.23-.1-.07-.21-.13-.33-.19-.24-.12-.53-.22-.86-.26-.17-.02-.35-.04-.54-.05-.19,0-.4,0-.61.03-.43.05-.92.15-1.45.33-.27.09-.54.21-.82.33-.14.07-.28.14-.43.22-.15.08-.3.16-.44.25-.6.35-1.29.86-2.01,1.5-.71.63-1.44,1.4-2.11,2.25-.13.16-.25.33-.38.49-.17-.81-.4-1.58-.7-2.29-.32-.76-.7-1.45-1.11-2.06-.11-.15-.21-.29-.31-.44-.05-.07-.1-.14-.16-.21-.06-.07-.11-.13-.16-.2-.21-.27-.44-.5-.65-.71-.86-.86-1.77-1.45-2.62-1.87-.86-.42-1.67-.65-2.38-.78-.18-.03-.35-.06-.52-.08-.17-.01-.33-.02-.49-.03-.08,0-.15,0-.23,0-.08,0-.15,0-.22,0-.15,0-.29.01-.42.02-.13,0-.26.03-.39.05-.12.02-.24.04-.35.07-.11.02-.22.05-.31.09-.1.03-.19.06-.28.1-.71.28-1.06.62-1.23.93-.17.31-.15.58-.09.81.06.23.19.48.42.7Z"/>
  <path class="cls-1" d="M.21,40.27c.09.2.18.36.28.47.2.22.42.29.63.31s.44-.02.68-.18c.12-.08.25-.19.37-.33.13-.14.27-.32.41-.55.3-.44.61-1.05,1.08-1.87.12-.2.24-.42.39-.65.03-.06.07-.12.11-.17.03-.06.07-.12.11-.18.08-.12.16-.24.24-.37.34-.51.74-1.07,1.24-1.68.5-.61,1.16-1.34,2-2.11.42-.38.88-.77,1.38-1.16.5-.38,1.04-.76,1.62-1.12.57-.36,1.18-.7,1.82-1.01.63-.31,1.29-.58,1.94-.79.16-.05.33-.1.49-.14l.24-.06.12-.03.14-.03c.36-.07.72-.15,1.09-.2.18-.03.36-.06.55-.08.18-.02.37-.04.55-.06l.27-.03c.09,0,.18-.01.27-.02.18-.01.36-.03.54-.04,1.45-.09,2.86-.04,4.15.09,1.29.13,2.47.36,3.45.58,1.37.31,2.39.64,2.91.74.09.07.15.1.18.08.02,0,.03-.03.04-.05.1,0,.17,0,.19-.04.03-.05-.05-.16-.21-.32-.1-.53-.42-1.54-.74-2.9-.23-.99-.45-2.16-.59-3.45-.13-1.29-.18-2.7-.09-4.15.01-.18.03-.36.04-.54,0-.09.01-.18.02-.27l.03-.27c.02-.18.04-.36.06-.55.03-.18.06-.36.08-.55.05-.37.13-.73.2-1.09l.03-.14.03-.12.06-.24c.05-.16.09-.33.14-.49.21-.66.48-1.31.79-1.94.31-.63.65-1.24,1.01-1.81.36-.57.74-1.11,1.12-1.62.38-.5.78-.96,1.16-1.38.77-.83,1.5-1.5,2.11-1.99.61-.5,1.17-.9,1.68-1.24.13-.08.25-.16.37-.24.06-.04.12-.08.18-.11.06-.04.12-.07.18-.11.23-.15.45-.26.65-.39.81-.47,1.43-.78,1.87-1.08.22-.14.4-.28.55-.41.14-.12.25-.25.33-.37.16-.24.2-.48.18-.68-.02-.2-.09-.42-.31-.63-.11-.1-.26-.2-.47-.28-.2-.08-.46-.14-.78-.18-.64-.07-1.55-.04-2.74.32-.29.09-.61.2-.94.34-.08.03-.17.07-.25.1-.09.04-.17.07-.25.12-.17.08-.34.17-.52.26-.71.38-1.46.87-2.23,1.5-.77.63-1.66,1.49-2.54,2.55-.43.54-.87,1.11-1.28,1.74-.3.45-.59.93-.87,1.43-.04-.24-.08-.48-.14-.71-.11-.42-.25-.84-.4-1.21-.08-.19-.16-.37-.24-.55-.09-.18-.19-.37-.28-.55-.41-.72-.93-1.4-1.56-1.96-.62-.56-1.33-.99-2.04-1.28-.71-.29-1.39-.44-2.02-.52-.15-.02-.31-.03-.46-.05-.15,0-.29-.01-.43-.02-.14,0-.29,0-.42,0-.14,0-.28.01-.41.02-.53.05-1.05.15-1.54.32-.49.16-.93.38-1.33.64-.39.26-.73.55-1.01.86-.28.3-.5.62-.67.92-.17.3-.29.59-.39.86-.09.27-.15.53-.19.76-.07.47-.06.85-.02,1.16.09.63.31.97.53,1.16.22.19.45.24.65.24.2,0,.43-.05.66-.2.23-.15.46-.4.72-.75.13-.17.27-.37.43-.58.08-.11.17-.21.26-.32.09-.1.19-.21.29-.31.21-.19.44-.37.74-.51.29-.14.66-.26,1.19-.3.07,0,.14,0,.21-.01.07,0,.14,0,.23,0,.08,0,.17,0,.26,0,.09,0,.17.01.26.02.35.03.7.09,1.05.21.35.12.68.28,1.01.52.32.24.64.57.93.98.07.11.14.21.21.32.07.12.15.24.2.36.13.24.24.47.33.71.18.47.28.96.31,1.59.04.62.03,1.33.05,2.05.01.72.04,1.43.08,2.13.08,1.4.21,2.75.39,3.98.16,1.11.37,2.12.59,2.99.12.66.26,1.3.43,1.9.37,1.36.83,2.55,1.29,3.52.32.68.64,1.25.93,1.7-.44-.27-.98-.57-1.62-.88-.97-.46-2.16-.92-3.52-1.29-.6-.16-1.24-.31-1.9-.43-.86-.22-1.88-.43-2.99-.59-1.23-.18-2.58-.31-3.98-.39-.7-.04-1.41-.06-2.13-.08-.72-.02-1.43,0-2.05-.05-.63-.04-1.12-.13-1.59-.31-.24-.09-.47-.2-.71-.33-.12-.06-.24-.14-.36-.2-.12-.07-.22-.14-.32-.21-.41-.29-.73-.6-.98-.93-.25-.32-.41-.66-.53-1-.11-.34-.18-.7-.21-1.05,0-.09-.01-.17-.02-.26,0-.09,0-.17,0-.26,0-.08,0-.15,0-.23,0-.07,0-.14.01-.21.05-.53.17-.9.3-1.19.14-.29.31-.53.51-.74.1-.1.2-.2.31-.29.11-.09.21-.18.32-.26.21-.16.41-.3.58-.43.35-.26.6-.49.75-.72.15-.23.2-.45.2-.66,0-.2-.05-.43-.24-.65-.19-.21-.54-.43-1.16-.53-.31-.04-.7-.05-1.16.02-.23.03-.49.1-.76.19-.27.09-.56.22-.87.39-.3.17-.61.39-.92.67-.3.28-.6.61-.86,1.01-.26.39-.48.84-.64,1.33-.16.48-.27,1-.32,1.54,0,.13-.02.27-.02.41,0,.14,0,.28,0,.42,0,.14.01.28.02.43.01.15.03.3.05.45.08.62.23,1.31.52,2.01.29.7.71,1.42,1.28,2.04.56.62,1.24,1.15,1.96,1.56.18.09.37.2.55.28.18.08.36.17.55.24.37.16.79.29,1.21.4.23.06.47.11.71.14-.5.28-.98.57-1.43.87-.63.41-1.21.85-1.75,1.28-1.06.88-1.92,1.76-2.55,2.53-.63.77-1.12,1.53-1.5,2.23-.09.18-.18.35-.26.52-.04.08-.08.17-.12.25-.04.08-.07.17-.1.25-.14.32-.24.64-.34.94-.36,1.19-.39,2.1-.32,2.74.04.32.1.58.19.78Z"/>
  <path class="cls-1" d="M54.44,49.61c-4.94-4.94-20.88-17.97-21.89-16.95-1.01,1.01,12.02,16.94,16.97,21.88,4.94,4.94,6.98,4.09,8,3.07s1.87-3.06-3.07-7.99Z"/>
  <path class="cls-1" d="M23.02,237.53v-37.65c-.11.02-.22.04-.33.06-.38.06-.75.09-1.13.1-.02,0-.03,0-.05,0-.08,0-.17,0-.25,0v37.7"/>
  <path class="cls-1" d="M6.48,155.26c-.3.28,3.01,4.47,7.73,10.1.57.67,1.16,1.37,1.76,2.09,1.08,1.28,2.22,2.6,3.38,3.96.63.73,1.27,1.47,1.91,2.22.08.1.17.19.25.29.02.02.03.04.05.06.18.21.36.42.54.63.31.36.62.72.92,1.09.58.7,1.14,1.4,1.64,2.11.38.54.73,1.08,1.05,1.62.08.14.15.28.23.41.07.14.14.27.21.41.06.13.13.27.19.4.06.14.12.27.18.41.46,1.1.73,2.21.8,3.25.04.52.02,1.02-.05,1.49s-.17.92-.32,1.3c-.15.4-.35.77-.58,1.11-.24.34-.5.66-.79.94-.58.57-1.24,1-1.87,1.3-.24.11-.47.21-.7.29-.08.02-.16.05-.23.07-.3.09-.59.15-.86.18-.13.02-.25.03-.37.04-.02,0-.03,0-.05,0-.08,0-.17.01-.25.01-.04,0-.08,0-.11,0-.25,0-.49-.02-.72-.05-.06,0-.11-.02-.17-.02-.06,0-.11-.02-.17-.03-.06,0-.11-.02-.17-.03-.06-.02-.11-.03-.17-.04-.11-.03-.22-.06-.32-.1-.05-.02-.11-.03-.16-.05-.05-.02-.1-.04-.15-.06-.41-.15-.79-.35-1.14-.56-.34-.21-.66-.44-.94-.68-.28-.23-.53-.47-.76-.7-.11-.11-.21-.23-.31-.34-.1-.12-.2-.23-.29-.34-.35-.44-.63-.83-.87-1.18-.23-.35-.43-.64-.6-.88-.18-.25-.33-.44-.49-.59-.3-.3-.6-.41-.87-.42-.27,0-.58.07-.87.47-.07.1-.14.22-.21.36-.06.14-.12.31-.17.5-.09.39-.15.89-.12,1.51.04.62.18,1.36.5,2.2.17.42.37.86.64,1.32.27.46.6.93.99,1.41.19.22.39.44.61.66.25.25.53.5.83.74.29.23.6.45.93.66.33.21.68.4,1.06.58.1.04.19.09.29.14.1.04.2.08.3.12.2.09.41.15.63.23.11.03.22.07.33.1.11.03.22.06.34.09.12.03.23.06.35.08.12.02.24.05.36.06.48.08.98.13,1.5.13h.14c.08,0,.17,0,.25,0,.02,0,.03,0,.05,0,.37,0,.75-.04,1.13-.1.11-.02.22-.03.33-.06.43-.07.87-.18,1.31-.32.56-.17,1.14-.4,1.71-.69.77-.39,1.54-.88,2.27-1.5.35-.29.68-.6,1-.95.26-.28.52-.59.76-.91.21-.29.42-.59.61-.9.41-.67.76-1.41,1.01-2.21.03-.1.06-.2.09-.3.03-.1.06-.21.08-.31.06-.21.1-.41.13-.61.02-.1.04-.21.06-.31.02-.1.03-.21.04-.31.02-.1.03-.21.04-.31,0-.1.02-.21.02-.31.06-.83.03-1.66-.08-2.48-.22-1.64-.74-3.2-1.47-4.64-.1-.18-.19-.36-.28-.54-.09-.15-.17-.3-.26-.45-.01-.02-.03-.05-.04-.07-.1-.17-.21-.34-.31-.51-.11-.16-.22-.33-.33-.49-.34-.51-.71-.99-1.09-1.46-.11-.14-.22-.27-.33-.4-.51-.61-1.04-1.19-1.57-1.75.63.25,1.26.46,1.9.61.18.05.36.09.54.12.41.08.82.14,1.22.17.67.06,1.3.04,1.85-.04.22-.02.44-.07.65-.11.11-.03.22-.06.33-.08.05-.02.1-.03.16-.05.05-.02.1-.03.15-.05.1-.03.2-.07.3-.1.1-.04.19-.08.28-.12.18-.07.36-.17.52-.25.66-.36,1.17-.79,1.56-1.22.39-.44.66-.87.83-1.28.09-.21.15-.4.19-.58.04-.19.06-.36.07-.52,0-.16,0-.31-.02-.44-.02-.13-.06-.25-.09-.36-.08-.21-.19-.37-.32-.49-.25-.24-.53-.33-.8-.39-.27-.06-.57-.08-.89-.05-.16.01-.31.03-.48.06-.08.01-.16.03-.24.04-.08.02-.17.03-.25.05-.33.07-.67.15-1.07.29-.2.06-.43.14-.69.21-.07.02-.13.04-.2.05-.04,0-.07.02-.1.03-.03,0-.07.01-.11.02h-.05s-.06.02-.06.02c-.04,0-.07.01-.11.02-.09,0-.17.03-.27.04-.29.04-.67.07-1.14.05-.13,0-.28-.01-.43-.02-.4-.04-.85-.1-1.34-.21-.34-.07-.71-.16-1.1-.27-.93-.25-1.91-.57-2.89-.95-.44-.17-.87-.35-1.3-.53-.49-.21-.98-.43-1.46-.66-.02,0-.03-.02-.05-.02-.04-.02-.08-.04-.13-.06s-.09-.04-.13-.06c-1.72-.82-3.33-1.68-4.61-2.3h0c-5.61-5.3-9.86-9.08-10.17-8.79Z"/>
  <path class="cls-1" d="M15.97,240.11v-41.6c-.33-.21-.64-.43-.93-.66-.3-.24-.58-.49-.83-.74v44.56"/>
  <path class="cls-1" d="M30.08,239.77v-44.26c-.24.32-.5.63-.76.91-.32.34-.66.66-1,.94v41.31"/>
  <path class="cls-1" d="M196.15,19.25c-.02-.12-.05-.23-.08-.35-.02-.12-.06-.23-.09-.34-.03-.11-.06-.22-.1-.33-.08-.21-.14-.43-.23-.63-.04-.1-.08-.2-.13-.3-.04-.1-.09-.19-.13-.29-.02-.04-.03-.07-.05-.11-.28-.57-.6-1.08-.93-1.53-.09-.12-.17-.23-.26-.34-.45-.56-.93-1.04-1.4-1.44-.48-.4-.95-.73-1.41-.99-.46-.26-.91-.47-1.32-.64-.84-.32-1.59-.45-2.21-.49-.62-.04-1.12.02-1.51.12-.19.05-.36.11-.5.17-.14.07-.26.14-.36.21-.4.29-.48.6-.47.87,0,.27.12.57.42.87.3.31.78.63,1.48,1.09.34.24.74.52,1.18.87.22.18.44.38.68.6.23.22.47.48.7.76.23.28.46.6.67.94.21.35.41.72.56,1.14.02.05.04.1.06.15.02.05.03.1.05.16.04.1.06.21.1.32.01.06.02.11.04.17.01.06.02.11.03.17.01.06.02.11.03.17,0,.06.02.11.02.17.03.23.05.47.05.72,0,.12,0,.24-.02.37,0,.02,0,.03,0,.05,0,.12-.02.25-.04.37-.04.27-.1.56-.18.86-.09.3-.21.62-.36.93-.3.64-.73,1.29-1.3,1.87-.29.29-.6.56-.95.79-.34.23-.71.44-1.11.58-.38.15-.83.26-1.3.33-.47.06-.97.08-1.49.04-1.04-.07-2.16-.35-3.26-.8-.13-.06-.27-.12-.41-.18-.13-.06-.27-.13-.41-.2-.13-.07-.27-.14-.41-.21-.14-.08-.27-.15-.41-.23-.55-.31-1.09-.67-1.63-1.05-1.07-.76-2.13-1.64-3.2-2.55-.21-.18-.42-.37-.63-.55-.02-.02-.04-.03-.06-.05-.84-.73-1.68-1.45-2.51-2.16-8.43-7.23-15.79-13.26-16.16-12.86-.29.31,3.5,4.56,8.79,10.16h0c.64,1.31,1.53,2.97,2.37,4.74.02.04.04.08.06.13,0,.02.02.03.02.05.42.91.83,1.84,1.19,2.76.38.99.7,1.96.95,2.89.26.93.42,1.76.48,2.43.06.67.03,1.19-.03,1.57,0,.1-.03.18-.04.27,0,.04-.02.07-.02.11v.05s-.02.06-.02.06c0,.03-.02.07-.02.1,0,.04-.02.07-.03.1-.02.07-.04.13-.05.2-.07.26-.15.49-.21.69-.13.4-.21.73-.29,1.07-.02.08-.04.16-.05.25-.02.08-.03.16-.04.24-.03.17-.05.33-.06.48-.02.32,0,.62.05.89.06.27.15.56.39.8.12.12.28.24.49.31.1.04.22.07.36.09.13.02.28.03.44.02.16,0,.33-.03.52-.07.18-.04.38-.1.58-.19.41-.17.85-.44,1.29-.83.43-.39.86-.91,1.22-1.56.09-.17.18-.33.25-.52.04-.09.08-.18.12-.28.03-.1.07-.19.1-.29.02-.05.03-.1.05-.15.01-.05.03-.1.04-.16.03-.11.06-.21.08-.33.04-.21.09-.43.11-.65.13-.89.1-1.98-.12-3.07-.16-.82-.42-1.64-.74-2.44.56.53,1.14,1.06,1.75,1.57.59.49,1.21.97,1.87,1.41.17.11.33.22.49.33.17.1.34.21.51.31.17.1.35.2.53.3.18.09.36.19.54.28,1.44.72,3,1.25,4.64,1.46.82.11,1.65.14,2.48.08.1,0,.21-.02.31-.02.1-.01.21-.02.31-.04.1-.01.21-.02.31-.04.1-.02.21-.04.31-.06.2-.04.4-.07.61-.13.1-.03.21-.06.31-.08.1-.03.2-.06.3-.09.8-.25,1.53-.6,2.21-1.01.67-.4,1.28-.87,1.81-1.37.04-.04.08-.08.12-.12.51-.48.95-1,1.34-1.53.39-.53.71-1.08.99-1.62.29-.57.51-1.14.69-1.7.13-.43.23-.86.31-1.28.02-.12.04-.25.06-.37.06-.38.09-.75.1-1.13,0-.01,0-.03,0-.03v-.02c0-.14,0-.27,0-.4,0-.51-.06-1.02-.14-1.5-.02-.12-.04-.24-.06-.36Z"/>
  <path class="cls-1" d="M292.3,21.51h-91.82s0,.03,0,.04c0,.37-.04.75-.1,1.13-.02.12-.04.25-.06.37h91.96"/>
  <path class="cls-1" d="M295.38,15.37h-96.84c.33.45.65.96.93,1.53h94.58"/>
  <path class="cls-1" d="M294.05,27.64h-95.72c-.39.53-.83,1.05-1.34,1.53h98.56"/>
</svg>