<?xml version="1.0" encoding="UTF-8"?>
<svg id="Layer_1" data-name="Layer 1" xmlns="http://www.w3.org/2000/svg" viewBox="0 0 430.15 73.93">
  <defs>
    <style>
      .cls-1 {
        fill: #fff;
        stroke-width: 0px;
      }
    </style>
  </defs>
  <path class="cls-1" d="M257.97,12.19c1.46.68,2.96,1.37,4.5,2.04,1.54.67,3.12,1.32,4.73,1.93,1.61.6,3.26,1.16,4.92,1.65,1.67.47,3.35.88,5.03,1.18.42.08.84.13,1.26.2.21.03.42.06.63.09.21.02.42.05.63.07.42.04.83.09,1.24.13.42.03.83.05,1.23.08.2.01.41.02.61.03.2,0,.41,0,.61,0,.4,0,.8,0,1.19,0,.82-.02,1.61-.06,2.38-.14,3.08-.31,5.71-1.07,7.76-1.9,4.11-1.67,6.94-4.05,8.69-6.29.88-1.12,1.49-2.21,1.9-3.2.1-.24.2-.48.27-.72.08-.23.15-.46.2-.67.1-.44.19-.84.23-1.22.16-1.5-.14-2.44-.54-3.01-.41-.57-.91-.79-1.38-.89-.47-.11-1.03-.1-1.63.11-.6.21-1.27.61-2.06,1.23-.19.16-.42.32-.63.5-.11.09-.23.19-.35.28-.11.1-.24.2-.37.3-.5.41-1.08.88-1.77,1.4-.7.51-1.51,1.08-2.51,1.67-1,.59-2.18,1.2-3.59,1.77-1.4.57-3.24,1.18-5.38,1.53-.53.09-1.09.16-1.65.21-.3.02-.6.04-.91.06-.15.01-.31.02-.46.03-.16,0-.31,0-.47,0-.32,0-.64.01-.96.02-.33,0-.66-.01-.99-.02-.17,0-.33,0-.5-.01-.17-.01-.34-.02-.51-.03-.34-.02-.69-.04-1.03-.07-1.39-.12-2.84-.31-4.33-.57-1.48-.27-3-.59-4.53-.97-1.53-.38-3.08-.8-4.63-1.24-1.55-.45-3.1-.91-4.64-1.37-12.31-3.68-22.96-6.46-23.31-5.55-.34.91,9.47,5.9,21.12,11.32Z"/>
  <path class="cls-1" d="M244.06,16.33c2.54,2.2,5.24,4.7,8.13,7.38,2.88,2.69,5.92,5.61,9.14,8.66,1.43,1.36,2.89,2.74,4.4,4.14.04.04.08.07.12.11,1.84,1.72,3.74,3.46,5.71,5.2.45.4.9.81,1.36,1.21.46.4.93.8,1.39,1.2.47.4.93.81,1.41,1.21.48.4.96.8,1.44,1.21,1.94,1.6,3.94,3.18,6.01,4.72,4.15,3.08,8.56,6,13.26,8.61,4.7,2.6,9.68,4.88,14.92,6.61,5.23,1.73,10.71,2.91,16.25,3.29,2.77.19,5.55.19,8.29-.02l.51-.03.51-.05c.34-.04.68-.07,1.02-.11.67-.06,1.38-.16,2.07-.27,1.39-.21,2.75-.5,4.1-.84,2.69-.68,5.29-1.6,7.77-2.78,1.24-.58,2.45-1.23,3.62-1.94,1.17-.71,2.3-1.49,3.39-2.33,2.17-1.67,4.13-3.65,5.78-5.85,1.64-2.21,2.96-4.65,3.84-7.18.11-.32.22-.63.32-.95.09-.33.18-.65.27-.97.09-.32.16-.65.23-.97.07-.33.14-.65.2-.97.1-.65.22-1.29.27-1.94.03-.32.06-.64.09-.96.01-.32.03-.64.04-.95v-.47s0-.47,0-.47c0-.31-.01-.62-.02-.93-.02-.31-.04-.61-.06-.92-.02-.3-.04-.61-.08-.9-.02-.15-.04-.3-.06-.46,0-.04-.01-.08-.01-.11-.02-.11-.03-.21-.04-.32-.04-.3-.1-.58-.15-.87-.05-.29-.1-.58-.16-.86-.06-.28-.13-.56-.19-.84-.53-2.22-1.29-4.23-2.18-6.06-.88-1.82-1.88-3.45-2.94-4.9-1.05-1.45-2.19-2.77-3.37-3.97-1.19-1.19-2.44-2.26-3.72-3.22-2.56-1.92-5.28-3.34-8-4.33-.67-.23-1.32-.42-1.96-.62-.32-.09-.64-.21-.96-.28-.32-.07-.64-.15-.96-.22-.32-.07-.63-.14-.94-.21-.31-.07-.62-.14-.93-.18-.62-.09-1.22-.18-1.82-.27-.15-.02-.3-.04-.45-.06-.15-.01-.3-.02-.44-.04-.29-.02-.58-.04-.87-.07-.29-.02-.58-.04-.86-.06-.14,0-.28-.02-.42-.03-.14,0-.28,0-.42,0h-1.64c-.27,0-.53,0-.79.01-.26.02-.52.03-.77.05-4.1.25-7.46,1.09-10.21,2.02-.34.12-.68.24-1.01.36-.16.06-.33.12-.48.18-.16.07-.31.13-.47.2-.61.26-1.19.51-1.75.75-.55.26-1.06.53-1.55.78-.24.13-.48.25-.71.38-.23.12-.44.26-.66.39-3.4,2.05-5.06,3.8-5.85,5.06-.78,1.27-.71,2.06-.37,2.61.33.56,1.02.99,2.41,1,1.4.03,3.53-.36,6.84-1.03.21-.04.42-.09.63-.13.22-.04.44-.08.67-.12.45-.09.93-.18,1.42-.27.5-.07,1.01-.15,1.55-.25.13-.02.27-.05.41-.07.14-.02.27-.03.41-.05.28-.04.56-.07.86-.11,2.31-.29,4.99-.51,8-.36.19,0,.38.02.57.02.19,0,.38.04.57.05.38.04.77.07,1.17.11.1.01.2.02.3.03.1.02.2.03.3.05.2.03.4.06.6.1.2.03.4.06.61.09.1.02.2.03.31.05.1.02.2.05.3.07.41.09.82.18,1.24.27.21.04.42.1.62.17.21.06.42.12.63.18.21.06.42.12.63.18.22.06.42.15.63.23.42.15.84.31,1.27.47,1.59.67,3.24,1.59,4.83,2.84.79.62,1.58,1.31,2.33,2.08.75.77,1.46,1.62,2.13,2.53.66.91,1.29,1.93,1.84,3.04.53,1.07.99,2.22,1.3,3.43.01.04.02.07.03.11h0c.04.17.08.32.12.48.04.16.06.32.1.48.03.16.07.32.09.48.02.16.05.32.07.49.03.16.04.33.05.49.02.16.03.33.05.49,0,.16.01.33.02.5v.25s0,.25,0,.25c0,.17,0,.33,0,.5-.01.17-.02.33-.03.5,0,.34-.08.67-.11,1-.02.17-.06.33-.09.5-.03.17-.06.33-.1.5-.04.17-.08.33-.13.5-.05.17-.1.34-.15.51-.43,1.37-1.1,2.71-2,4.02-.92,1.29-2.06,2.56-3.44,3.7-.69.58-1.43,1.13-2.22,1.65-.79.52-1.62,1-2.5,1.46-1.74.91-3.65,1.67-5.64,2.26-1,.3-2.02.56-3.05.76-.52.1-1.03.2-1.58.27l-.82.12-.41.06-.41.04c-2.2.26-4.46.37-6.74.32-4.57-.11-9.25-.86-13.87-2.13-4.63-1.27-9.2-3.07-13.62-5.19-4.42-2.13-8.69-4.6-12.76-7.25-2.04-1.33-4.03-2.7-5.97-4.1-.48-.36-.97-.71-1.45-1.06-.48-.36-.96-.72-1.43-1.08-.48-.36-.95-.71-1.42-1.07-.3-.23-.6-.46-.9-.7-.05-.04-.1-.07-.15-.11-.12-.09-.23-.18-.35-.27-3.73-2.88-7.31-5.78-10.74-8.57-3.44-2.79-6.73-5.46-9.87-7.92-3.15-2.45-6.13-4.72-8.95-6.69-2.8-1.99-5.42-3.69-7.76-5.12-2.36-1.41-4.43-2.58-6.17-3.43-1.72-.89-3.13-1.46-4.1-1.82-.97-.36-1.51-.48-1.59-.33-.35.64,6.99,5.05,17.06,13.97Z"/>
  <path class="cls-1" d="M430.15,11.56c-3.88.52-7.57,1.76-11,3.48-.42.23-.84.44-1.27.67-.41.23-.83.47-1.25.71-.4.25-.8.49-1.2.74-.39.26-.78.52-1.18.78-1.55,1.05-3.01,2.18-4.41,3.34-1.45,1.22-2.83,2.47-4.15,3.74.75-1.9,1.35-3.85,1.74-5.79.52-2.61.6-5.18.3-7.29-.07-.53-.18-1.04-.28-1.54-.07-.26-.13-.52-.19-.77-.04-.13-.08-.25-.11-.38s-.08-.24-.12-.36c-.08-.24-.17-.48-.24-.7-.09-.23-.18-.45-.28-.67-.18-.43-.39-.84-.59-1.23-.85-1.56-1.86-2.78-2.89-3.7-1.03-.93-2.07-1.56-3.03-1.97-.49-.2-.95-.35-1.38-.45-.45-.09-.85-.15-1.22-.17-.38,0-.73,0-1.04.05-.31.04-.59.13-.84.22-.49.18-.88.45-1.16.74-.57.58-.79,1.27-.93,1.91-.13.63-.18,1.36-.12,2.11.02.38.08.74.14,1.15.03.19.07.38.1.58.04.2.08.4.13.58.17.79.37,1.58.68,2.53.15.48.33,1.02.49,1.64.04.15.1.31.13.47.03.08.05.17.07.25.02.08.03.16.05.25l.03.13.03.13c0,.08.02.18.05.26.02.21.07.42.09.64.13.89.2,2.11.07,3.71-.15,1.6-.51,3.56-1.14,5.77-.59,2.2-1.35,4.51-2.26,6.85-.84,2.19-1.81,4.41-2.83,6.55-.02.04-.03.08-.05.12-.05.1-.09.2-.14.3-1,2.09-2.01,4.12-2.98,6.02-.96,1.89-1.86,3.65-2.63,5.21-12.55,13.31-21.52,23.38-20.83,24.11.89.94,18.31-13.35,38.29-30.51,1.96-1.69,3.95-3.4,5.95-5.12.04-.04.09-.07.13-.12.49-.43.99-.86,1.5-1.29,2.52-2.16,5.03-4.25,7.57-6.06,1.28-.91,2.56-1.74,3.85-2.48.33-.18.65-.37.98-.54.33-.18.64-.34.97-.51.32-.15.64-.31.96-.46"/>
  <path class="cls-1" d="M234.96,32.31c.97,1.43,1.82,2.73,2.6,3.98.82,1.33,1.6,2.66,2.29,3.95.72,1.35,1.34,2.65,1.85,3.85.08.19.15.38.23.56l.8,2.18.74,2.63c.11.5.23,1.04.3,1.57.27,1.75.34,3.54.21,5.36-.09,1.29-.27,2.53-.55,3.81-.23,1.12-.53,2.05-.77,2.8-.26.79-.51,1.43-.76,2.09-.06.13-.11.27-.18.43l-.14.38c-.07.17-.13.33-.18.49-.04.1-.07.19-.12.31-.39,1.08-.58,1.92-.59,2.67-.02.77.17,1.49.55,2.13.44.75,1.05,1.24,1.86,1.49.36.11.75.17,1.15.17.79,0,1.66-.21,2.57-.62.42-.18.8-.41,1.24-.68.2-.12.39-.26.63-.43.23-.16.45-.34.67-.53.97-.83,1.86-1.84,2.63-3,1.37-2.05,3.08-5.56,3.44-10.71.19-2.67-.03-5.52-.62-8.25-.15-.71-.35-1.47-.63-2.39l-.39-1.17-.9-2.38-.52-1.15-.75-1.55c-.13-.26-.27-.53-.41-.79-.78-1.44-1.7-2.95-2.74-4.51-.96-1.4-2.01-2.82-3.14-4.22-1.02-1.26-2.15-2.59-3.34-3.93-1.02-1.14-2.11-2.33-3.36-3.66-16.93-18.08-17.8-17.38-18.73-16.63-.93.74-1.8,1.45,12.32,21.79.91,1.32,1.83,2.64,2.73,3.97Z"/>
  <path class="cls-1" d="M124.4,6.69c.06.22.13.44.2.67.07.24.17.47.27.72.41.98,1.02,2.08,1.9,3.2,1.75,2.24,4.58,4.62,8.69,6.29,2.05.84,4.69,1.59,7.76,1.9.77.08,1.57.12,2.38.14.39,0,.79,0,1.19,0,.2,0,.4,0,.61,0,.2-.01.41-.02.61-.03.41-.02.82-.05,1.23-.08.41-.04.82-.09,1.24-.13.21-.02.42-.05.63-.07.21-.03.42-.06.63-.09.42-.07.84-.12,1.26-.2,1.68-.3,3.36-.71,5.03-1.18,1.66-.49,3.31-1.04,4.92-1.65,1.61-.61,3.19-1.26,4.73-1.93,1.54-.67,3.04-1.36,4.5-2.04,11.65-5.43,21.46-10.41,21.12-11.32-.34-.91-11,1.88-23.31,5.55-1.53.46-3.09.92-4.64,1.37-1.55.44-3.1.86-4.63,1.24-1.53.37-3.05.7-4.53.97-1.48.25-2.93.45-4.33.57-.35.03-.69.04-1.03.07-.17.01-.34.02-.51.03-.17,0-.34,0-.5.01-.33,0-.66.01-.99.02-.32,0-.64-.01-.96-.02-.16,0-.32,0-.47,0-.15-.01-.31-.02-.46-.03-.31-.02-.61-.04-.91-.06-.57-.06-1.12-.12-1.65-.21-2.14-.35-3.97-.96-5.38-1.53-1.41-.57-2.59-1.19-3.59-1.77-1-.59-1.82-1.16-2.51-1.67-.7-.51-1.27-.98-1.77-1.4-.13-.1-.25-.2-.37-.3-.12-.09-.23-.19-.35-.28-.21-.18-.44-.35-.63-.5-.79-.62-1.45-1.02-2.06-1.23-.6-.21-1.16-.21-1.63-.11-.47.11-.97.32-1.38.89-.4.57-.7,1.51-.54,3.01.03.38.12.77.23,1.22Z"/>
  <path class="cls-1" d="M60.27,41.72c.02.32.06.64.09.96.05.64.17,1.29.27,1.94.06.32.13.65.2.97.07.33.14.65.23.97.09.32.18.65.28.97.1.32.21.63.32.95.88,2.53,2.2,4.97,3.84,7.18,1.65,2.2,3.61,4.17,5.78,5.85,1.08.84,2.21,1.62,3.39,2.33,1.17.71,2.38,1.35,3.62,1.94,2.48,1.17,5.08,2.09,7.77,2.78,1.34.34,2.71.63,4.1.84.69.11,1.4.21,2.07.27.34.03.68.07,1.02.11l.51.05.51.03c2.74.21,5.52.22,8.29.02,5.54-.39,11.02-1.56,16.25-3.29,5.23-1.73,10.22-4.01,14.92-6.61,4.7-2.6,9.12-5.53,13.26-8.61,2.07-1.54,4.08-3.12,6.01-4.72.48-.4.96-.81,1.44-1.21.47-.4.94-.81,1.41-1.21.47-.4.93-.8,1.39-1.2.46-.4.91-.81,1.36-1.21,1.97-1.75,3.87-3.49,5.71-5.2.04-.04.08-.08.12-.11,1.5-1.4,2.97-2.79,4.4-4.14,3.22-3.05,6.26-5.97,9.14-8.66,2.88-2.69,5.59-5.18,8.13-7.38,10.07-8.92,17.41-13.32,17.06-13.97-.07-.14-.62-.02-1.59.33-.97.36-2.38.93-4.1,1.82-1.75.85-3.82,2.02-6.17,3.43-2.34,1.43-4.96,3.13-7.76,5.12-2.82,1.97-5.8,4.23-8.95,6.69-3.15,2.46-6.44,5.13-9.87,7.92-3.43,2.79-7.01,5.69-10.74,8.57-.12.09-.23.18-.35.27-.05.04-.1.07-.15.11-.3.23-.6.47-.9.7-.47.36-.95.71-1.42,1.07-.48.36-.96.72-1.43,1.08-.48.35-.96.7-1.45,1.06-1.94,1.4-3.93,2.77-5.97,4.1-4.07,2.65-8.34,5.12-12.76,7.25-4.42,2.13-8.99,3.92-13.62,5.19-4.63,1.28-9.31,2.03-13.87,2.13-2.28.05-4.54-.05-6.74-.32l-.41-.04-.41-.06-.82-.12c-.55-.07-1.06-.17-1.58-.27-1.03-.21-2.06-.46-3.05-.76-1.99-.6-3.9-1.35-5.64-2.26-.87-.45-1.71-.94-2.5-1.46-.79-.52-1.53-1.07-2.21-1.65-1.38-1.14-2.52-2.41-3.44-3.7-.9-1.31-1.57-2.65-2-4.02-.05-.17-.11-.34-.15-.51-.04-.17-.08-.33-.13-.5-.05-.17-.08-.33-.1-.5-.03-.17-.07-.33-.09-.5-.03-.34-.1-.67-.11-1-.01-.17-.02-.33-.03-.5,0-.17,0-.33,0-.5v-.25s0-.25,0-.25c0-.17.01-.33.02-.5.02-.16.03-.33.05-.49.01-.16.03-.33.05-.49.02-.16.05-.33.07-.49.02-.16.06-.32.09-.48.03-.16.06-.32.1-.48.04-.16.08-.32.12-.47h0s.02-.09.03-.12c.32-1.21.77-2.37,1.3-3.43.55-1.11,1.18-2.12,1.84-3.04.66-.91,1.38-1.76,2.13-2.53.75-.77,1.53-1.46,2.33-2.08,1.59-1.25,3.24-2.17,4.83-2.84.43-.16.86-.32,1.27-.47.21-.07.41-.17.63-.23.21-.06.43-.12.63-.18.21-.06.42-.12.63-.18.21-.06.41-.13.62-.17.42-.09.83-.18,1.23-.27.1-.02.2-.05.3-.07.1-.01.2-.03.31-.05.2-.03.4-.06.61-.09.2-.03.4-.07.6-.1.1-.02.2-.03.3-.05.1-.01.2-.02.3-.03.4-.04.78-.07,1.17-.11.19-.02.38-.05.57-.05.19,0,.38-.02.57-.02,3-.15,5.68.07,8,.36.29.04.58.07.85.11.14.02.28.03.41.05.14.02.27.05.4.07.53.09,1.05.18,1.55.25.49.09.96.18,1.42.27.23.04.45.08.67.12.22.04.43.09.63.13,3.32.67,5.44,1.05,6.84,1.03,1.4-.01,2.08-.45,2.41-1,.33-.55.41-1.34-.37-2.61-.79-1.25-2.44-3.01-5.85-5.06-.21-.13-.43-.27-.66-.39-.23-.12-.47-.25-.71-.38-.49-.25-1-.52-1.55-.78-.55-.25-1.13-.5-1.75-.75-.15-.07-.31-.13-.47-.2-.16-.06-.32-.12-.48-.18-.33-.12-.67-.23-1.01-.36-2.75-.93-6.12-1.76-10.21-2.02-.25-.02-.51-.03-.77-.05-.26-.02-.53,0-.79-.01h-1.63c-.14,0-.28,0-.42,0-.14,0-.28.02-.42.03-.28.02-.57.04-.86.06-.29.02-.58.04-.87.07-.15.01-.29.02-.44.04-.15.02-.3.04-.45.06-.6.09-1.2.18-1.82.27-.31.04-.62.11-.93.18-.31.07-.63.14-.94.21-.32.07-.63.15-.96.22-.32.07-.64.19-.96.28-.65.2-1.29.39-1.96.62-2.72.99-5.44,2.41-8,4.33-1.28.96-2.53,2.03-3.72,3.22-1.19,1.2-2.32,2.52-3.37,3.97-1.05,1.45-2.05,3.08-2.94,4.9-.88,1.82-1.65,3.84-2.18,6.06-.06.28-.13.56-.19.84-.06.28-.11.57-.16.86-.05.29-.11.57-.15.87-.01.11-.03.21-.04.32,0,.04,0,.07-.01.11-.02.15-.04.3-.06.46-.04.3-.06.6-.08.9-.02.3-.04.61-.06.92,0,.31-.01.62-.02.93v.47s0,.47,0,.47c.01.32.03.64.04.95Z"/>
  <path class="cls-1" d="M191.52,23.17c-1.25,1.33-2.35,2.52-3.36,3.66-1.21,1.36-2.3,2.65-3.34,3.94-1.12,1.4-2.17,2.81-3.15,4.22-1.04,1.55-1.96,3.06-2.73,4.51-.14.26-.28.53-.41.79l-1.29,2.73-.46,1.15-.82,2.36c-.27.9-.48,1.68-.62,2.38-.6,2.73-.82,5.59-.63,8.26.36,5.15,2.07,8.67,3.44,10.71.78,1.16,1.66,2.17,2.62,2.99.23.2.45.38.73.58.2.15.38.28.59.42.42.25.8.49,1.2.65.94.42,1.81.63,2.6.63.41,0,.79-.06,1.16-.17.8-.25,1.41-.74,1.86-1.49.38-.64.57-1.35.55-2.12,0-.74-.2-1.6-.6-2.71-.03-.08-.07-.18-.1-.27-.06-.17-.13-.33-.18-.47l-.18-.45c-.05-.13-.1-.25-.16-.41-.24-.62-.5-1.29-.76-2.06-.24-.76-.53-1.69-.77-2.81-.28-1.28-.46-2.53-.55-3.81-.13-1.81-.06-3.61.21-5.37.08-.53.19-1.06.29-1.52l.73-2.62.82-2.22c.07-.18.14-.38.23-.56.51-1.2,1.13-2.5,1.84-3.85.7-1.3,1.47-2.62,2.29-3.95.79-1.26,1.65-2.57,2.61-3.99.9-1.33,1.82-2.65,2.73-3.96,14.12-20.36,13.25-21.06,12.32-21.8-.93-.75-1.8-1.45-18.73,16.63Z"/>
  <path class="cls-1" d="M215.08,73.93c2.82,0,6.84-1.65,6.85-15.38,0-13.73-4.01-53.97-6.82-53.96-2.82,0-6.85,40.24-6.86,53.97,0,13.73,4.02,15.38,6.84,15.38Z"/>
  <path class="cls-1" d="M10.37,26.68c1.29.74,2.57,1.57,3.85,2.48,2.54,1.81,5.05,3.9,7.57,6.06.5.43,1,.86,1.5,1.29.04.04.09.08.13.12,2,1.72,3.99,3.44,5.95,5.12,19.98,17.16,37.4,31.46,38.29,30.51.69-.73-8.28-10.8-20.83-24.11-.77-1.55-1.67-3.32-2.63-5.21-.96-1.9-1.98-3.93-2.98-6.02-.05-.1-.09-.2-.14-.3-.02-.04-.03-.07-.05-.12-1.01-2.14-1.98-4.36-2.83-6.55-.9-2.34-1.66-4.66-2.26-6.85-.63-2.21-.99-4.17-1.14-5.77-.13-1.6-.07-2.83.07-3.71.03-.23.08-.43.09-.64.03-.08.04-.18.05-.26l.03-.13.03-.13c.02-.09.03-.18.05-.25.02-.08.04-.17.07-.25.03-.16.08-.32.13-.47.17-.62.34-1.16.49-1.64.31-.95.51-1.75.68-2.53.05-.18.08-.38.13-.58.03-.19.08-.38.1-.58.07-.4.12-.77.14-1.15.07-.74.02-1.48-.12-2.11-.13-.64-.36-1.32-.93-1.91-.28-.29-.67-.56-1.16-.74-.25-.09-.53-.18-.84-.22-.31-.04-.65-.06-1.04-.05-.37.02-.77.08-1.22.17-.43.1-.89.25-1.38.45-.96.41-2.01,1.04-3.03,1.97-1.04.93-2.04,2.14-2.89,3.7-.2.39-.42.79-.59,1.23-.1.22-.19.44-.28.67-.07.23-.16.46-.24.7-.04.12-.08.23-.12.36-.03.13-.07.25-.11.38-.06.25-.13.51-.19.77-.1.49-.21,1.01-.28,1.54-.3,2.11-.22,4.68.3,7.29.38,1.94.99,3.9,1.74,5.79-1.33-1.27-2.7-2.52-4.15-3.74-1.4-1.16-2.87-2.29-4.41-3.34-.4-.26-.79-.52-1.18-.78-.4-.25-.8-.49-1.2-.74-.42-.24-.84-.48-1.25-.71-.43-.23-.85-.44-1.27-.67-3.43-1.71-7.12-2.96-11-3.48"/>
</svg>